<mxfile host="app.diagrams.net" modified="2022-09-22T05:08:20.663Z" agent="5.0 (Macintosh; Intel Mac OS X 10_15_7) AppleWebKit/537.36 (KHTML, like Gecko) Chrome/105.0.0.0 Safari/537.36" etag="DFiAw683XTlgbOG4J5-m" version="20.3.3" type="github">
  <diagram id="prtHgNgQTEPvFCAcTncT" name="Page-1">
    <mxGraphModel dx="932" dy="1171" grid="1" gridSize="10" guides="1" tooltips="1" connect="1" arrows="1" fold="1" page="1" pageScale="1" pageWidth="827" pageHeight="1169" math="0" shadow="0">
      <root>
        <mxCell id="0" />
        <mxCell id="1" parent="0" />
        <mxCell id="WIikd73Tc5OY5qvM8-dH-20" style="edgeStyle=orthogonalEdgeStyle;rounded=0;orthogonalLoop=1;jettySize=auto;html=1;exitX=0.5;exitY=1;exitDx=0;exitDy=0;entryX=0.609;entryY=-0.02;entryDx=0;entryDy=0;entryPerimeter=0;fontStyle=1" edge="1" parent="1" source="WIikd73Tc5OY5qvM8-dH-11" target="WIikd73Tc5OY5qvM8-dH-12">
          <mxGeometry relative="1" as="geometry" />
        </mxCell>
        <mxCell id="WIikd73Tc5OY5qvM8-dH-21" style="edgeStyle=orthogonalEdgeStyle;rounded=0;orthogonalLoop=1;jettySize=auto;html=1;exitX=0.5;exitY=1;exitDx=0;exitDy=0;entryX=0.5;entryY=0;entryDx=0;entryDy=0;fontStyle=1" edge="1" parent="1" source="WIikd73Tc5OY5qvM8-dH-11" target="WIikd73Tc5OY5qvM8-dH-13">
          <mxGeometry relative="1" as="geometry" />
        </mxCell>
        <mxCell id="WIikd73Tc5OY5qvM8-dH-11" value="Corporate headquarters&lt;br&gt;Superior Holding Company" style="rounded=1;whiteSpace=wrap;html=1;fillColor=#dae8fc;strokeColor=#6c8ebf;shadow=0;gradientColor=#A3BCFF;gradientDirection=south;fontStyle=1" vertex="1" parent="1">
          <mxGeometry x="320" y="40" width="180" height="40" as="geometry" />
        </mxCell>
        <mxCell id="WIikd73Tc5OY5qvM8-dH-22" style="edgeStyle=orthogonalEdgeStyle;rounded=0;orthogonalLoop=1;jettySize=auto;html=1;exitX=0.5;exitY=1;exitDx=0;exitDy=0;entryX=0.5;entryY=0;entryDx=0;entryDy=0;fontStyle=1" edge="1" parent="1" source="WIikd73Tc5OY5qvM8-dH-12" target="WIikd73Tc5OY5qvM8-dH-14">
          <mxGeometry relative="1" as="geometry" />
        </mxCell>
        <mxCell id="WIikd73Tc5OY5qvM8-dH-12" value="Clothing Division" style="rounded=1;whiteSpace=wrap;html=1;fillColor=#FFF4DE;strokeColor=#6c8ebf;shadow=0;gradientColor=#A3BCFF;gradientDirection=south;fontStyle=1" vertex="1" parent="1">
          <mxGeometry x="210" y="120" width="110" height="30" as="geometry" />
        </mxCell>
        <mxCell id="WIikd73Tc5OY5qvM8-dH-23" style="edgeStyle=orthogonalEdgeStyle;rounded=0;orthogonalLoop=1;jettySize=auto;html=1;exitX=0.5;exitY=1;exitDx=0;exitDy=0;entryX=0.5;entryY=0;entryDx=0;entryDy=0;fontStyle=1" edge="1" parent="1" source="WIikd73Tc5OY5qvM8-dH-13" target="WIikd73Tc5OY5qvM8-dH-15">
          <mxGeometry relative="1" as="geometry" />
        </mxCell>
        <mxCell id="WIikd73Tc5OY5qvM8-dH-13" value="Other Division" style="rounded=1;whiteSpace=wrap;html=1;fillColor=#FFF4DE;strokeColor=#6c8ebf;shadow=0;gradientColor=#A3BCFF;gradientDirection=south;fontStyle=1" vertex="1" parent="1">
          <mxGeometry x="500" y="120" width="110" height="30" as="geometry" />
        </mxCell>
        <mxCell id="WIikd73Tc5OY5qvM8-dH-24" style="edgeStyle=orthogonalEdgeStyle;rounded=0;orthogonalLoop=1;jettySize=auto;html=1;exitX=0.5;exitY=1;exitDx=0;exitDy=0;entryX=0.5;entryY=0;entryDx=0;entryDy=0;fontStyle=1" edge="1" parent="1" source="WIikd73Tc5OY5qvM8-dH-14" target="WIikd73Tc5OY5qvM8-dH-16">
          <mxGeometry relative="1" as="geometry" />
        </mxCell>
        <mxCell id="WIikd73Tc5OY5qvM8-dH-25" style="edgeStyle=orthogonalEdgeStyle;rounded=0;orthogonalLoop=1;jettySize=auto;html=1;exitX=0.5;exitY=1;exitDx=0;exitDy=0;fontStyle=1" edge="1" parent="1" source="WIikd73Tc5OY5qvM8-dH-14" target="WIikd73Tc5OY5qvM8-dH-19">
          <mxGeometry relative="1" as="geometry" />
        </mxCell>
        <mxCell id="WIikd73Tc5OY5qvM8-dH-26" style="edgeStyle=orthogonalEdgeStyle;rounded=0;orthogonalLoop=1;jettySize=auto;html=1;exitX=0.5;exitY=1;exitDx=0;exitDy=0;fontStyle=1" edge="1" parent="1" source="WIikd73Tc5OY5qvM8-dH-14" target="WIikd73Tc5OY5qvM8-dH-18">
          <mxGeometry relative="1" as="geometry" />
        </mxCell>
        <mxCell id="WIikd73Tc5OY5qvM8-dH-27" style="edgeStyle=orthogonalEdgeStyle;rounded=0;orthogonalLoop=1;jettySize=auto;html=1;exitX=0.5;exitY=1;exitDx=0;exitDy=0;fontStyle=1" edge="1" parent="1" source="WIikd73Tc5OY5qvM8-dH-14" target="WIikd73Tc5OY5qvM8-dH-17">
          <mxGeometry relative="1" as="geometry" />
        </mxCell>
        <mxCell id="WIikd73Tc5OY5qvM8-dH-14" value="Active Quality Sportswear (AQS)" style="rounded=1;whiteSpace=wrap;html=1;fillColor=#D5E8D4;strokeColor=#6c8ebf;shadow=0;gradientColor=#FFD9F4;gradientDirection=south;fontStyle=1" vertex="1" parent="1">
          <mxGeometry x="170" y="190" width="190" height="30" as="geometry" />
        </mxCell>
        <mxCell id="WIikd73Tc5OY5qvM8-dH-15" value="Sports Equipment" style="rounded=1;whiteSpace=wrap;html=1;fillColor=#D5E8D4;strokeColor=#6c8ebf;shadow=0;gradientColor=#FFD9F4;gradientDirection=south;fontStyle=1" vertex="1" parent="1">
          <mxGeometry x="500" y="190" width="110" height="30" as="geometry" />
        </mxCell>
        <mxCell id="WIikd73Tc5OY5qvM8-dH-16" value="Sales" style="rounded=1;whiteSpace=wrap;html=1;fillColor=#D5E8D4;strokeColor=#6c8ebf;shadow=0;gradientColor=#E4E874;gradientDirection=south;fontStyle=1" vertex="1" parent="1">
          <mxGeometry x="120" y="260" width="110" height="30" as="geometry" />
        </mxCell>
        <mxCell id="WIikd73Tc5OY5qvM8-dH-31" style="edgeStyle=orthogonalEdgeStyle;rounded=0;orthogonalLoop=1;jettySize=auto;html=1;exitX=0.5;exitY=1;exitDx=0;exitDy=0;entryX=0.5;entryY=0;entryDx=0;entryDy=0;fontStyle=1" edge="1" parent="1" source="WIikd73Tc5OY5qvM8-dH-17" target="WIikd73Tc5OY5qvM8-dH-28">
          <mxGeometry relative="1" as="geometry" />
        </mxCell>
        <mxCell id="WIikd73Tc5OY5qvM8-dH-32" style="edgeStyle=orthogonalEdgeStyle;rounded=0;orthogonalLoop=1;jettySize=auto;html=1;exitX=0.5;exitY=1;exitDx=0;exitDy=0;entryX=0.5;entryY=0;entryDx=0;entryDy=0;fontStyle=1" edge="1" parent="1" source="WIikd73Tc5OY5qvM8-dH-17" target="WIikd73Tc5OY5qvM8-dH-29">
          <mxGeometry relative="1" as="geometry" />
        </mxCell>
        <mxCell id="WIikd73Tc5OY5qvM8-dH-33" style="edgeStyle=orthogonalEdgeStyle;rounded=0;orthogonalLoop=1;jettySize=auto;html=1;exitX=0.5;exitY=1;exitDx=0;exitDy=0;entryX=0.5;entryY=0;entryDx=0;entryDy=0;fontStyle=1" edge="1" parent="1" source="WIikd73Tc5OY5qvM8-dH-17" target="WIikd73Tc5OY5qvM8-dH-30">
          <mxGeometry relative="1" as="geometry" />
        </mxCell>
        <mxCell id="WIikd73Tc5OY5qvM8-dH-17" value="Production" style="rounded=1;whiteSpace=wrap;html=1;fillColor=#D5E8D4;strokeColor=#6c8ebf;shadow=0;gradientColor=#E4E874;gradientDirection=south;fontStyle=1" vertex="1" parent="1">
          <mxGeometry x="250" y="260" width="110" height="30" as="geometry" />
        </mxCell>
        <mxCell id="WIikd73Tc5OY5qvM8-dH-18" value="Research &lt;br&gt;and &lt;br&gt;Development" style="rounded=1;whiteSpace=wrap;html=1;fillColor=#D5E8D4;strokeColor=#6c8ebf;shadow=0;gradientColor=#E4E874;gradientDirection=south;fontStyle=1" vertex="1" parent="1">
          <mxGeometry x="390" y="260" width="110" height="30" as="geometry" />
        </mxCell>
        <mxCell id="WIikd73Tc5OY5qvM8-dH-19" value="Clothing Division" style="rounded=1;whiteSpace=wrap;html=1;fillColor=#D5E8D4;strokeColor=#6c8ebf;shadow=0;gradientColor=#E4E874;gradientDirection=south;fontStyle=1" vertex="1" parent="1">
          <mxGeometry x="520" y="260" width="110" height="30" as="geometry" />
        </mxCell>
        <mxCell id="WIikd73Tc5OY5qvM8-dH-28" value="Clothing Division" style="rounded=1;whiteSpace=wrap;html=1;fillColor=#E8C384;strokeColor=#6c8ebf;shadow=0;gradientColor=#D5E8D4;gradientDirection=south;fontStyle=1" vertex="1" parent="1">
          <mxGeometry x="176" y="360" width="110" height="30" as="geometry" />
        </mxCell>
        <mxCell id="WIikd73Tc5OY5qvM8-dH-29" value="Clothing Division" style="rounded=1;whiteSpace=wrap;html=1;fillColor=#E8C384;strokeColor=#6c8ebf;shadow=0;gradientColor=#D5E8D4;gradientDirection=south;fontStyle=1" vertex="1" parent="1">
          <mxGeometry x="316" y="360" width="110" height="30" as="geometry" />
        </mxCell>
        <mxCell id="WIikd73Tc5OY5qvM8-dH-30" value="Clothing Division" style="rounded=1;whiteSpace=wrap;html=1;fillColor=#E8C384;strokeColor=#6c8ebf;shadow=0;gradientColor=#D5E8D4;gradientDirection=south;fontStyle=1" vertex="1" parent="1">
          <mxGeometry x="446" y="360" width="110" height="30" as="geometry" />
        </mxCell>
      </root>
    </mxGraphModel>
  </diagram>
</mxfile>
